<svg width="48" height="18" viewBox="0 0 48 18" fill="none" xmlns="http://www.w3.org/2000/svg">
<path d="M3.28 6.704V2.96H8.8C9.544 2.96 10.144 2.36 10.144 1.568C10.144 0.8 9.544 0.199999 8.8 0.199999H1.672C0.928 0.199999 0.328 0.8 0.328 1.544V15.656C0.328 16.4 0.904 17 1.672 17.024C2.488 17.048 3.496 17.096 4.696 17.096C8.824 17.096 11.176 15.104 11.176 11.624C11.176 8.528 9.04 6.56 5.536 6.56C4.936 6.56 3.928 6.608 3.28 6.704ZM3.28 9.464C4.024 9.368 4.744 9.32 5.296 9.32C7.36 9.32 8.248 10.4 8.248 11.84C8.248 13.328 7.336 14.336 5.152 14.336C4.528 14.336 3.952 14.288 3.28 14.24V9.464ZM23.9022 7.544C23.9022 6.8 23.3022 6.2 22.5582 6.2H17.0622C16.3182 6.2 15.6942 6.8 15.6462 7.544L15.5502 9.56C15.4062 12.656 14.9262 13.832 14.1342 14.336C13.5342 14.72 13.1982 15.08 13.1982 15.824C13.1982 16.712 13.8462 17.192 14.6622 17.192C16.6782 17.192 17.7822 15.008 18.2142 10.112L18.2862 8.96H21.1422V15.848C21.1422 16.592 21.7422 17.192 22.5342 17.192C23.3022 17.192 23.9022 16.592 23.9022 15.848V7.544ZM26.3093 11.6C26.3093 14.84 28.6133 17.264 32.1893 17.264C35.7653 17.264 38.0693 14.84 38.0693 11.6C38.0693 8.36 35.7653 5.936 32.1893 5.936C28.6133 5.936 26.3093 8.36 26.3093 11.6ZM29.2613 11.6C29.2613 9.728 30.5573 8.528 32.1893 8.528C33.8693 8.528 35.1413 9.776 35.1413 11.6C35.1413 13.472 33.8933 14.696 32.1893 14.696C30.5093 14.696 29.2613 13.4 29.2613 11.6ZM43.2179 8.792H46.3619C47.1059 8.792 47.7059 8.192 47.7059 7.496C47.7059 6.8 47.1059 6.2 46.3619 6.2H41.8019C41.0579 6.2 40.4579 6.8 40.4579 7.544V15.848C40.4579 16.592 41.0579 17.192 41.8499 17.192C42.6179 17.192 43.2179 16.592 43.2179 15.848V8.792Z" fill="#010101"/>
</svg>
