<svg width="23" height="19" viewBox="0 0 23 19" fill="none" xmlns="http://www.w3.org/2000/svg">
<path d="M11.5 19C11.1726 19 10.8569 18.8899 10.6109 18.6898C9.68172 17.9354 8.78591 17.2265 7.99557 16.6011L7.99153 16.5979C5.67437 14.7644 3.67342 13.181 2.28119 11.6212C0.724892 9.87752 0 8.22423 0 6.41811C0 4.66332 0.648033 3.04441 1.8246 1.8594C3.01521 0.660369 4.64889 0 6.42523 0C7.75288 0 8.96876 0.389737 10.039 1.15829C10.5791 1.54624 11.0687 2.02103 11.5 2.57484C11.9315 2.02103 12.4209 1.54624 12.9612 1.15829C14.0314 0.389737 15.2473 0 16.5749 0C18.3511 0 19.985 0.660369 21.1756 1.8594C22.3521 3.04441 23 4.66332 23 6.41811C23 8.22423 22.2753 9.87752 20.719 11.6211C19.3268 13.181 17.326 14.7642 15.0092 16.5975C14.2174 17.2239 13.3202 17.9339 12.389 18.6901C12.1431 18.8899 11.8273 19 11.5 19ZM6.42523 1.251C5.02967 1.251 3.74764 1.76815 2.81499 2.7073C1.86847 3.66063 1.34713 4.97843 1.34713 6.41811C1.34713 7.93714 1.95515 9.29568 3.31843 10.823C4.63608 12.2994 6.59597 13.8502 8.86523 15.6459L8.86944 15.6491C9.66277 16.2769 10.5621 16.9886 11.4981 17.7485C12.4397 16.9871 13.3404 16.2743 14.1353 15.6455C16.4044 13.8498 18.3641 12.2994 19.6817 10.823C21.0448 9.29568 21.6529 7.93714 21.6529 6.41811C21.6529 4.97843 21.1315 3.66063 20.185 2.7073C19.2525 1.76815 17.9703 1.251 16.5749 1.251C15.5526 1.251 14.614 1.55276 13.7852 2.14779C13.0466 2.6783 12.5321 3.34893 12.2305 3.81818C12.0754 4.05949 11.8023 4.20352 11.5 4.20352C11.1977 4.20352 10.9246 4.05949 10.7695 3.81818C10.468 3.34893 9.95353 2.6783 9.21478 2.14779C8.386 1.55276 7.44738 1.251 6.42523 1.251Z" fill="#CDCDCD"/>
</svg>
