<svg width="19" height="17" viewBox="0 0 19 17" fill="none" xmlns="http://www.w3.org/2000/svg">
<path d="M17.4427 4.10093C16.6082 3.0752 15.4745 2.2649 14.0419 1.67025C12.6092 1.07561 11.0443 0.77832 9.34731 0.77832C7.65034 0.77832 6.08545 1.07561 4.65277 1.67025C3.22009 2.2649 2.08649 3.07505 1.25188 4.10093C0.417246 5.12675 0 6.24467 0 7.45483C0 8.49799 0.314606 9.47543 0.944074 10.3865C1.57354 11.2975 2.43409 12.0627 3.52611 12.6816C3.44952 12.9597 3.35912 13.2239 3.25477 13.4745C3.15045 13.7249 3.05658 13.9301 2.97312 14.0901C2.88959 14.2499 2.77668 14.4274 2.63399 14.6219C2.49153 14.8168 2.38373 14.9542 2.31069 15.0342C2.23772 15.1142 2.11776 15.2462 1.95074 15.4306C1.78394 15.6148 1.67607 15.735 1.62744 15.7906C1.62039 15.7942 1.59262 15.8253 1.54395 15.8847C1.49531 15.9437 1.4709 15.9731 1.4709 15.9731L1.40831 16.067C1.37349 16.1189 1.35785 16.152 1.36128 16.1657C1.36479 16.1798 1.35785 16.2145 1.34046 16.27C1.32303 16.3258 1.32482 16.3676 1.34564 16.3953V16.4058C1.37349 16.524 1.42906 16.6197 1.51252 16.6927C1.59598 16.7655 1.69003 16.802 1.79424 16.802H1.84646C2.29863 16.7462 2.69502 16.67 3.03575 16.5725C4.85798 16.1066 6.45765 15.2651 7.83464 14.0479C8.35621 14.1035 8.86046 14.1313 9.34724 14.1313C11.0442 14.1313 12.6092 13.834 14.0418 13.2392C15.4745 12.6445 16.6081 11.8345 17.4426 10.8087C18.2773 9.78298 18.6946 8.66494 18.6946 7.45479C18.6946 6.24482 18.2774 5.12675 17.4427 4.10093ZM16.269 10.1151C15.5421 10.9357 14.5614 11.5878 13.327 12.071C12.0925 12.5542 10.7658 12.7961 9.34705 12.7961C8.92286 12.7961 8.47083 12.7683 7.99096 12.7125L7.39631 12.6501L6.94772 13.0467C6.0924 13.7978 5.13601 14.3924 4.07888 14.8306C4.39875 14.2673 4.64218 13.6691 4.80916 13.0364L5.09081 12.0348L4.18324 11.5133C3.2791 10.9984 2.57849 10.3882 2.08111 9.6822C1.58381 8.97644 1.33527 8.23385 1.33527 7.45497C1.33527 6.50213 1.69865 5.61546 2.42539 4.79478C3.15235 3.97418 4.13285 3.32213 5.36738 2.83879C6.6019 2.3554 7.9284 2.11351 9.34727 2.11351C10.766 2.11351 12.0925 2.35529 13.3269 2.83864C14.5614 3.32202 15.542 3.97403 16.269 4.79464C16.9958 5.61532 17.3591 6.50202 17.3591 7.45479C17.3591 8.40756 16.9958 9.29445 16.269 10.1151Z" fill="#CDCDCD"/>
</svg>
