<svg width="38" height="38" viewBox="0 0 38 38" fill="none" xmlns="http://www.w3.org/2000/svg">
<path d="M35.957 2.8613e-06H2.07814C1.48061 -0.00112741 0.932806 0.332677 0.659659 0.864278C0.382745 1.40304 0.431346 2.05181 0.785118 2.54385L13.1969 20.0283C13.2011 20.0343 13.2056 20.04 13.2097 20.046C13.6607 20.6548 13.9045 21.3921 13.906 22.1502V36.405C13.9033 36.8274 14.0691 37.2328 14.3667 37.5323C14.6644 37.8318 15.069 37.9998 15.491 37.9998C15.7057 37.9998 15.9178 37.9569 16.116 37.8748L23.0905 35.2152C23.7155 35.0246 24.1303 34.435 24.1303 33.7248V22.1502C24.1315 21.3925 24.3756 20.6548 24.8262 20.046C24.8303 20.04 24.8349 20.0343 24.839 20.0283L37.2504 2.5431C37.6042 2.05143 37.6528 1.40304 37.3759 0.864278C37.1027 0.332677 36.5549 -0.00112741 35.957 2.8613e-06ZM23.271 18.9033C22.5777 19.844 22.2029 20.9815 22.2006 22.1502V33.4905L15.835 35.9175V22.1502C15.8327 20.9815 15.4578 19.844 14.7642 18.9033L2.71448 1.92899H35.3211L23.271 18.9033Z" fill="black"/>
</svg>
