<svg width="21" height="21" viewBox="0 0 21 21" fill="none" xmlns="http://www.w3.org/2000/svg">
<g clip-path="url(#clip0)">
<path d="M20.2867 10.0915C20.108 9.83483 15.8508 3.80762 10.4137 3.80762C4.97653 3.80762 0.719179 9.83484 0.540702 10.0912C0.371483 10.3347 0.371483 10.6649 0.540702 10.9084C0.719179 11.165 4.97653 17.1922 10.4137 17.1922C15.8508 17.1922 20.108 11.165 20.2867 10.9086C20.4561 10.6652 20.4561 10.3347 20.2867 10.0915ZM10.4137 15.8076C6.40864 15.8076 2.93985 11.8072 1.91301 10.4995C2.93852 9.19052 6.40005 5.19223 10.4137 5.19223C14.4185 5.19223 17.8871 9.19191 18.9144 10.5004C17.8889 11.8093 14.4273 15.8076 10.4137 15.8076Z" fill="#CDCDCD"/>
<path d="M10.4137 6.34619C8.23237 6.34619 6.45764 8.20966 6.45764 10.5001C6.45764 12.7905 8.23237 14.6539 10.4137 14.6539C12.595 14.6539 14.3698 12.7905 14.3698 10.5001C14.3698 8.20966 12.595 6.34619 10.4137 6.34619ZM10.4137 13.2693C8.9594 13.2693 7.77635 12.027 7.77635 10.5001C7.77635 8.97308 8.95944 7.73084 10.4137 7.73084C11.868 7.73084 13.0511 8.97308 13.0511 10.5001C13.0511 12.027 11.868 13.2693 10.4137 13.2693Z" fill="#CDCDCD"/>
</g>
<defs>
<clipPath id="clip0">
<rect x="0.413788" width="20" height="21" fill="white"/>
</clipPath>
</defs>
</svg>
